<?xml version="1.0" encoding="UTF-8" standalone="no"?>
<!-- Created with Inkscape (http://www.inkscape.org/) -->

<svg
   width="210mm"
   height="297mm"
   viewBox="0 0 210 297"
   version="1.1"
   id="svg5"
   xml:space="preserve"
   inkscape:version="1.2.2 (b0a8486541, 2022-12-01)"
   sodipodi:docname="homescreen.svg"
   xmlns:inkscape="http://www.inkscape.org/namespaces/inkscape"
   xmlns:sodipodi="http://sodipodi.sourceforge.net/DTD/sodipodi-0.dtd"
   xmlns="http://www.w3.org/2000/svg"
   xmlns:svg="http://www.w3.org/2000/svg"><sodipodi:namedview
     id="namedview7"
     pagecolor="#ffffff"
     bordercolor="#000000"
     borderopacity="0.25"
     inkscape:showpageshadow="2"
     inkscape:pageopacity="0.0"
     inkscape:pagecheckerboard="0"
     inkscape:deskcolor="#d1d1d1"
     inkscape:document-units="mm"
     showgrid="false"
     inkscape:zoom="2.0971623"
     inkscape:cx="369.54699"
     inkscape:cy="221.48977"
     inkscape:window-width="2256"
     inkscape:window-height="1476"
     inkscape:window-x="0"
     inkscape:window-y="0"
     inkscape:window-maximized="1"
     inkscape:current-layer="layer1" /><defs
     id="defs2"><style
       id="style1314">
      .cls-1 {
        fill: #05c6d5;
        stroke: #fff;
        stroke-miterlimit: 10;
      }

      .cls-2 {
        fill: #668ea7;
      }

      .cls-3 {
        fill: #00c1d4;
      }
    </style></defs><g
     inkscape:label="Layer 1"
     inkscape:groupmode="layer"
     id="layer1"><rect
       style="fill:#eef6fd;stroke-width:0.399294;fill-opacity:1"
       id="rect234"
       width="192.166"
       height="108"
       x="0"
       y="0" /><g
       id="g1343"
       transform="matrix(0.26458333,0,0,0.26458333,40.479384,4.3849065)"><path
         class="cls-3"
         d="m 216.9,115.59 v 0.08 c -7.57,-0.02 -15.15,0.02 -22.72,-0.02 v -0.05 c 7.57,0 15.15,0 22.72,0 z"
         id="path1318" /><g
         id="g1330"><path
           class="cls-2"
           d="m 22.84,0.64 c 0,31.07 0,62.13 0,93.2 v 22.75 c -7.61,0 -15.22,0 -22.83,0 V 0.66 c 7.61,-0.02 15.22,0 22.84,-0.02 z"
           id="path1320" /><path
           class="cls-2"
           d="m 147.58,94.22 c -4.11,10.87 -13.86,19.59 -25.25,21.71 -3.33,0.65 -6.74,0.66 -10.11,0.67 H 27.48 V 93.36 c 29.52,0 59.03,0.05 88.53,-0.02 6.13,0 11.32,-5.9 10.88,-12.04 0.06,-5.87 -5.01,-11.26 -10.85,-11.27 C 102.88,69.94 89.73,70.03 76.57,70 72.16,69.95 67.7,70.21 63.33,69.41 51.84,67.43 41.91,58.74 37.73,47.81 34.22,38.11 34.87,26.74 40.09,17.79 44.72,9.98 52.3,3.81 61.1,1.62 67.16,0.04 73.47,0.65 79.66,0.51 c 19.68,0 39.37,0 59.05,0 0.03,7.72 -0.05,15.43 0.05,23.14 -23.04,0.2 -46.09,0 -69.13,0.1 -5.98,-0.16 -11.39,5.24 -11.25,11.31 -0.36,6.19 5.09,11.89 11.22,11.71 15.25,0.05 30.48,-0.02 45.73,0.02 14.2,-0.45 27.66,9.39 32.41,22.81 2.71,7.89 2.66,16.76 -0.17,24.61 z"
           id="path1322" /><path
           class="cls-1"
           d="m 153.24,0.54 c 37.94,-0.02 75.88,-0.02 113.82,0 -0.03,7.75 0.07,15.5 -0.05,23.25 -30.3,-0.11 -60.59,0 -90.89,-0.06 -0.06,23.22 -0.07,46.45 0,69.67 30.29,-0.08 60.59,0.05 90.88,-0.06 0.14,7.75 0.02,15.51 0.06,23.27 -37.94,-0.03 -75.88,0.02 -113.82,-0.02 z"
           id="path1324" /><path
           class="cls-1"
           d="m 274.03,0.52 c 7.65,0.05 15.3,-0.12 22.94,0.09 15.15,29.01 30.3,58.02 45.66,86.9 15.05,-29.01 30.46,-57.84 45.47,-86.88 7.66,-0.24 15.32,-0.06 22.98,-0.1 v 116.05 c -7.61,0.02 -15.22,0 -22.83,0.02 0,-23.06 -0.03,-46.12 0.02,-69.18 -4.2,7.35 -7.56,15.17 -11.43,22.7 -7.64,15.51 -15.24,31.04 -22.92,46.53 -7.57,-0.1 -15.15,-0.08 -22.73,-0.02 -7.6,-15.31 -15.11,-30.67 -22.66,-46 -3.95,-7.7 -7.4,-15.68 -11.67,-23.21 0.03,23.07 0.02,46.13 0,69.2 -7.61,-0.06 -15.22,0 -22.83,-0.03 z"
           id="path1326" /><path
           class="cls-1"
           d="m 190.19,49.68 h 60.86 c -0.05,6.47 0.11,12.96 -0.08,19.43 -20.24,-0.1 -40.48,-0.08 -60.71,-0.01 -0.16,-6.47 -0.03,-12.94 -0.07,-19.42 z"
           id="path1328" /></g></g><g
       id="g1722"
       transform="matrix(-0.26458333,0,0,-0.26458333,149.2443,102.59563)"><path
         class="cls-3"
         d="m 216.9,115.59 v 0.08 c -7.57,-0.02 -15.15,0.02 -22.72,-0.02 v -0.05 c 7.57,0 15.15,0 22.72,0 z"
         id="path1708" /><g
         id="g1720"><path
           class="cls-2"
           d="m 22.84,0.64 c 0,31.07 0,62.13 0,93.2 v 22.75 c -7.61,0 -15.22,0 -22.83,0 V 0.66 c 7.61,-0.02 15.22,0 22.84,-0.02 z"
           id="path1710" /><path
           class="cls-2"
           d="m 147.58,94.22 c -4.11,10.87 -13.86,19.59 -25.25,21.71 -3.33,0.65 -6.74,0.66 -10.11,0.67 H 27.48 V 93.36 c 29.52,0 59.03,0.05 88.53,-0.02 6.13,0 11.32,-5.9 10.88,-12.04 0.06,-5.87 -5.01,-11.26 -10.85,-11.27 C 102.88,69.94 89.73,70.03 76.57,70 72.16,69.95 67.7,70.21 63.33,69.41 51.84,67.43 41.91,58.74 37.73,47.81 34.22,38.11 34.87,26.74 40.09,17.79 44.72,9.98 52.3,3.81 61.1,1.62 67.16,0.04 73.47,0.65 79.66,0.51 c 19.68,0 39.37,0 59.05,0 0.03,7.72 -0.05,15.43 0.05,23.14 -23.04,0.2 -46.09,0 -69.13,0.1 -5.98,-0.16 -11.39,5.24 -11.25,11.31 -0.36,6.19 5.09,11.89 11.22,11.71 15.25,0.05 30.48,-0.02 45.73,0.02 14.2,-0.45 27.66,9.39 32.41,22.81 2.71,7.89 2.66,16.76 -0.17,24.61 z"
           id="path1712" /><path
           class="cls-1"
           d="m 153.24,0.54 c 37.94,-0.02 75.88,-0.02 113.82,0 -0.03,7.75 0.07,15.5 -0.05,23.25 -30.3,-0.11 -60.59,0 -90.89,-0.06 -0.06,23.22 -0.07,46.45 0,69.67 30.29,-0.08 60.59,0.05 90.88,-0.06 0.14,7.75 0.02,15.51 0.06,23.27 -37.94,-0.03 -75.88,0.02 -113.82,-0.02 z"
           id="path1714" /><path
           class="cls-1"
           d="m 274.03,0.52 c 7.65,0.05 15.3,-0.12 22.94,0.09 15.15,29.01 30.3,58.02 45.66,86.9 15.05,-29.01 30.46,-57.84 45.47,-86.88 7.66,-0.24 15.32,-0.06 22.98,-0.1 v 116.05 c -7.61,0.02 -15.22,0 -22.83,0.02 0,-23.06 -0.03,-46.12 0.02,-69.18 -4.2,7.35 -7.56,15.17 -11.43,22.7 -7.64,15.51 -15.24,31.04 -22.92,46.53 -7.57,-0.1 -15.15,-0.08 -22.73,-0.02 -7.6,-15.31 -15.11,-30.67 -22.66,-46 -3.95,-7.7 -7.4,-15.68 -11.67,-23.21 0.03,23.07 0.02,46.13 0,69.2 -7.61,-0.06 -15.22,0 -22.83,-0.03 z"
           id="path1716" /><path
           class="cls-1"
           d="m 190.19,49.68 h 60.86 c -0.05,6.47 0.11,12.96 -0.08,19.43 -20.24,-0.1 -40.48,-0.08 -60.71,-0.01 -0.16,-6.47 -0.03,-12.94 -0.07,-19.42 z"
           id="path1718" /></g></g><text
       xml:space="preserve"
       style="font-size:4.23333px;fill:#000000;fill-opacity:1;stroke-width:0.4"
       x="54.694038"
       y="43.890411"
       id="text1778"><tspan
         sodipodi:role="line"
         id="tspan1776"
         style="fill:#000000;fill-opacity:1;stroke-width:0.4"
         x="54.694038"
         y="43.890411">Start game on http://134.28.20.51:5000</tspan></text><text
       xml:space="preserve"
       style="font-size:4.23333px;fill:#000000;fill-opacity:1;stroke-width:0.4"
       x="-132.58733"
       y="-64.443268"
       id="text1938"
       transform="scale(-1)"><tspan
         sodipodi:role="line"
         id="tspan1936"
         style="fill:#000000;fill-opacity:1;stroke-width:0.4"
         x="-132.58733"
         y="-64.443268">Start game on http://134.28.20.51:5000</tspan></text><text
       xml:space="preserve"
       style="font-size:2.11667px;fill:#000000;fill-opacity:1;stroke-width:0.4"
       x="191.40211"
       y="104.35358"
       id="text1992"><tspan
         sodipodi:role="line"
         style="font-size:2.11667px;text-align:end;text-anchor:end;stroke-width:0.4"
         x="191.40211"
         y="104.35358"
         id="tspan1998">beamer-module v2</tspan><tspan
         sodipodi:role="line"
         style="font-size:2.11667px;text-align:end;text-anchor:end;stroke-width:0.4"
         x="191.40211"
         y="106.99941"
         id="tspan2002">07.07.2025</tspan></text></g></svg>
